<svg xmlns="http://www.w3.org/2000/svg" viewBox="0 0 1100 420" width="1100" height="420" font-family="PingFang SC, Microsoft YaHei, Noto Sans CJK SC, sans-serif">
<defs><marker id="a" viewBox="0 0 10 10" refX="9" refY="5" markerWidth="7" markerHeight="7" orient="auto-start-reverse"><path d="M0,0 L10,5 L0,10 z" fill="#57606a"/></marker><pattern id="hatch" width="8" height="8" patternUnits="userSpaceOnUse" patternTransform="rotate(45)"><rect width="8" height="8" fill="#eaeef2"/><line x1="0" y1="0" x2="0" y2="8" stroke="#afb8c1" stroke-width="3"/></pattern><style>.h{font-size:19px;font-weight:700;fill:#1f2328}.t{font-size:14px;font-weight:600;fill:#1f2328}.s{font-size:13px;fill:#57606a}.c{font-size:13px;font-weight:600;fill:#1f2328}.red{fill:#cf222e}.k{font-size:12px;fill:#57606a}</style></defs>
<rect x="0" y="0" width="1100" height="420" fill="#ffffff"/>
<text x="20" y="34" class="t">even_sum 的循环里，sum 每次都要等上一次的结果：这条链有多长，每个元素就要多久</text>
<line x1="60" y1="62" x2="60" y2="372" stroke="#eaeef2"/>
<text x="115.0" y="66" class="k" text-anchor="middle">周期 1</text>
<line x1="170" y1="62" x2="170" y2="372" stroke="#eaeef2"/>
<text x="225.0" y="66" class="k" text-anchor="middle">周期 2</text>
<line x1="280" y1="62" x2="280" y2="372" stroke="#eaeef2"/>
<text x="335.0" y="66" class="k" text-anchor="middle">周期 3</text>
<line x1="390" y1="62" x2="390" y2="372" stroke="#eaeef2"/>
<text x="445.0" y="66" class="k" text-anchor="middle">周期 4</text>
<line x1="500" y1="62" x2="500" y2="372" stroke="#eaeef2"/>
<text x="555.0" y="66" class="k" text-anchor="middle">周期 5</text>
<line x1="610" y1="62" x2="610" y2="372" stroke="#eaeef2"/>
<text x="665.0" y="66" class="k" text-anchor="middle">周期 6</text>
<line x1="720" y1="62" x2="720" y2="372" stroke="#eaeef2"/>
<text x="775.0" y="66" class="k" text-anchor="middle">周期 7</text>
<line x1="830" y1="62" x2="830" y2="372" stroke="#eaeef2"/>
<text x="885.0" y="66" class="k" text-anchor="middle">周期 8</text>
<line x1="940" y1="62" x2="940" y2="372" stroke="#eaeef2"/>
<text x="60" y="100" class="t">保留分支，猜对了：链上只有 add</text>
<rect x="68" y="116" width="94" height="40" rx="6" fill="#ddf4ff" stroke="#54aeff" stroke-width="1.6"/>
<text x="115.0" y="141" class="c" text-anchor="middle">add</text>
<rect x="178" y="116" width="94" height="40" rx="6" fill="#ddf4ff" stroke="#54aeff" stroke-width="1.6"/>
<text x="225.0" y="141" class="c" text-anchor="middle">add</text>
<rect x="288" y="116" width="94" height="40" rx="6" fill="#ddf4ff" stroke="#54aeff" stroke-width="1.6"/>
<text x="335.0" y="141" class="c" text-anchor="middle">add</text>
<rect x="398" y="116" width="94" height="40" rx="6" fill="#ddf4ff" stroke="#54aeff" stroke-width="1.6"/>
<text x="445.0" y="141" class="c" text-anchor="middle">add</text>
<rect x="508" y="116" width="94" height="40" rx="6" fill="#ddf4ff" stroke="#54aeff" stroke-width="1.6"/>
<text x="555.0" y="141" class="c" text-anchor="middle">add</text>
<rect x="618" y="116" width="94" height="40" rx="6" fill="#ddf4ff" stroke="#54aeff" stroke-width="1.6"/>
<text x="665.0" y="141" class="c" text-anchor="middle">add</text>
<rect x="728" y="116" width="94" height="40" rx="6" fill="#ddf4ff" stroke="#54aeff" stroke-width="1.6"/>
<text x="775.0" y="141" class="c" text-anchor="middle">add</text>
<rect x="838" y="116" width="94" height="40" rx="6" fill="#ddf4ff" stroke="#54aeff" stroke-width="1.6"/>
<text x="885.0" y="141" class="c" text-anchor="middle">add</text>
<line x1="162" y1="136" x2="178" y2="136" stroke="#57606a" stroke-width="1.6" marker-end="url(#a)"/>
<line x1="272" y1="136" x2="288" y2="136" stroke="#57606a" stroke-width="1.6" marker-end="url(#a)"/>
<line x1="382" y1="136" x2="398" y2="136" stroke="#57606a" stroke-width="1.6" marker-end="url(#a)"/>
<line x1="492" y1="136" x2="508" y2="136" stroke="#57606a" stroke-width="1.6" marker-end="url(#a)"/>
<line x1="602" y1="136" x2="618" y2="136" stroke="#57606a" stroke-width="1.6" marker-end="url(#a)"/>
<line x1="712" y1="136" x2="728" y2="136" stroke="#57606a" stroke-width="1.6" marker-end="url(#a)"/>
<line x1="822" y1="136" x2="838" y2="136" stroke="#57606a" stroke-width="1.6" marker-end="url(#a)"/>
<path d="M70,164 v6 H160 v-6" fill="none" stroke="#8c959f"/>
<text x="115.0" y="186" class="k" text-anchor="middle">第 1 个</text>
<path d="M180,164 v6 H270 v-6" fill="none" stroke="#8c959f"/>
<text x="225.0" y="186" class="k" text-anchor="middle">第 2 个</text>
<path d="M290,164 v6 H380 v-6" fill="none" stroke="#8c959f"/>
<text x="335.0" y="186" class="k" text-anchor="middle">第 3 个</text>
<path d="M400,164 v6 H490 v-6" fill="none" stroke="#8c959f"/>
<text x="445.0" y="186" class="k" text-anchor="middle">第 4 个</text>
<path d="M510,164 v6 H600 v-6" fill="none" stroke="#8c959f"/>
<text x="555.0" y="186" class="k" text-anchor="middle">第 5 个</text>
<path d="M620,164 v6 H710 v-6" fill="none" stroke="#8c959f"/>
<text x="665.0" y="186" class="k" text-anchor="middle">第 6 个</text>
<path d="M730,164 v6 H820 v-6" fill="none" stroke="#8c959f"/>
<text x="775.0" y="186" class="k" text-anchor="middle">第 7 个</text>
<path d="M840,164 v6 H930 v-6" fill="none" stroke="#8c959f"/>
<text x="885.0" y="186" class="k" text-anchor="middle">第 8 个</text>
<text x="60" y="212" class="s">load、and、je 不在链上：方向已经猜好，CPU 先往下走，条件晚点算出来再核对</text>
<text x="60" y="250" class="t">cmov：链上是 add + cmove</text>
<rect x="68" y="266" width="94" height="40" rx="6" fill="#ddf4ff" stroke="#54aeff" stroke-width="1.6"/>
<text x="115.0" y="291" class="c" text-anchor="middle">add</text>
<rect x="178" y="266" width="94" height="40" rx="6" fill="#fff1c2" stroke="#d4a72c" stroke-width="1.6"/>
<text x="225.0" y="291" class="c" text-anchor="middle">cmove</text>
<rect x="288" y="266" width="94" height="40" rx="6" fill="#ddf4ff" stroke="#54aeff" stroke-width="1.6"/>
<text x="335.0" y="291" class="c" text-anchor="middle">add</text>
<rect x="398" y="266" width="94" height="40" rx="6" fill="#fff1c2" stroke="#d4a72c" stroke-width="1.6"/>
<text x="445.0" y="291" class="c" text-anchor="middle">cmove</text>
<rect x="508" y="266" width="94" height="40" rx="6" fill="#ddf4ff" stroke="#54aeff" stroke-width="1.6"/>
<text x="555.0" y="291" class="c" text-anchor="middle">add</text>
<rect x="618" y="266" width="94" height="40" rx="6" fill="#fff1c2" stroke="#d4a72c" stroke-width="1.6"/>
<text x="665.0" y="291" class="c" text-anchor="middle">cmove</text>
<rect x="728" y="266" width="94" height="40" rx="6" fill="#ddf4ff" stroke="#54aeff" stroke-width="1.6"/>
<text x="775.0" y="291" class="c" text-anchor="middle">add</text>
<rect x="838" y="266" width="94" height="40" rx="6" fill="#fff1c2" stroke="#d4a72c" stroke-width="1.6"/>
<text x="885.0" y="291" class="c" text-anchor="middle">cmove</text>
<line x1="162" y1="286" x2="178" y2="286" stroke="#57606a" stroke-width="1.6" marker-end="url(#a)"/>
<line x1="272" y1="286" x2="288" y2="286" stroke="#57606a" stroke-width="1.6" marker-end="url(#a)"/>
<line x1="382" y1="286" x2="398" y2="286" stroke="#57606a" stroke-width="1.6" marker-end="url(#a)"/>
<line x1="492" y1="286" x2="508" y2="286" stroke="#57606a" stroke-width="1.6" marker-end="url(#a)"/>
<line x1="602" y1="286" x2="618" y2="286" stroke="#57606a" stroke-width="1.6" marker-end="url(#a)"/>
<line x1="712" y1="286" x2="728" y2="286" stroke="#57606a" stroke-width="1.6" marker-end="url(#a)"/>
<line x1="822" y1="286" x2="838" y2="286" stroke="#57606a" stroke-width="1.6" marker-end="url(#a)"/>
<path d="M70,314 v6 H270 v-6" fill="none" stroke="#8c959f"/>
<text x="170.0" y="336" class="k" text-anchor="middle">第 1 个</text>
<path d="M290,314 v6 H490 v-6" fill="none" stroke="#8c959f"/>
<text x="390.0" y="336" class="k" text-anchor="middle">第 2 个</text>
<path d="M510,314 v6 H710 v-6" fill="none" stroke="#8c959f"/>
<text x="610.0" y="336" class="k" text-anchor="middle">第 3 个</text>
<path d="M730,314 v6 H930 v-6" fill="none" stroke="#8c959f"/>
<text x="830.0" y="336" class="k" text-anchor="middle">第 4 个</text>
<text x="60" y="362" class="s">cmove 要等 and 算出条件、add 算出 sum + x，才能决定新的 sum；下一个元素的 add 又要等它</text>
<text x="60" y="400" class="s">实测（1.5 节）：猜对时约 0.25 ns/个，约 1 个周期；cmov 约 0.44 ns/个，约 2 个周期，和数据有没有规律无关。</text>
</svg>
